<?xml version="1.0" encoding="utf-8"?>
<svg version="1.1" xmlns:xlink="http://www.w3.org/1999/xlink" width="300px" height="50px" xmlns="http://www.w3.org/2000/svg">
  <g transform="matrix(1 0 0 1 -351 -398 )">
    <path d="M 351.5 401  A 2.5 2.5 0 0 1 354 398.5 L 648 398.5  A 2.5 2.5 0 0 1 650.5 401 L 650.5 445  A 2.5 2.5 0 0 1 648 447.5 L 354 447.5  A 2.5 2.5 0 0 1 351.5 445 L 351.5 401  Z " fill-rule="nonzero" fill="#ffffff" stroke="none" />
    <path d="M 351.5 401  A 2.5 2.5 0 0 1 354 398.5 L 648 398.5  A 2.5 2.5 0 0 1 650.5 401 L 650.5 445  A 2.5 2.5 0 0 1 648 447.5 L 354 447.5  A 2.5 2.5 0 0 1 351.5 445 L 351.5 401  Z " stroke-width="1" stroke="#0079fe" fill="none" />
  </g>
</svg>