<?xml version="1.0" encoding="utf-8"?>
<svg version="1.1" xmlns:xlink="http://www.w3.org/1999/xlink" width="200px" height="35px" xmlns="http://www.w3.org/2000/svg">
  <g transform="matrix(1 0 0 1 -210 -18 )">
    <path d="M 210.5 35.5  A 17 17 0 0 1 227.5 18.5 L 392.5 18.5  A 17 17 0 0 1 409.5 35.5 A 17 17 0 0 1 392.5 52.5 L 227.5 52.5  A 17 17 0 0 1 210.5 35.5 Z " fill-rule="nonzero" fill="#ffffff" stroke="none" />
    <path d="M 210.5 35.5  A 17 17 0 0 1 227.5 18.5 L 392.5 18.5  A 17 17 0 0 1 409.5 35.5 A 17 17 0 0 1 392.5 52.5 L 227.5 52.5  A 17 17 0 0 1 210.5 35.5 Z " stroke-width="1" stroke="#0079fe" fill="none" />
  </g>
</svg>