<?xml version="1.0" encoding="utf-8"?>
<svg version="1.1" xmlns:xlink="http://www.w3.org/1999/xlink" width="306px" height="56px" xmlns="http://www.w3.org/2000/svg">
  <defs>
    <filter x="348px" y="395px" width="306px" height="56px" filterUnits="userSpaceOnUse" id="filter1">
      <feOffset dx="0" dy="0" in="SourceAlpha" result="shadowOffsetInner" />
      <feGaussianBlur stdDeviation="1.5" in="shadowOffsetInner" result="shadowGaussian" />
      <feComposite in2="shadowGaussian" operator="atop" in="SourceAlpha" result="shadowComposite" />
      <feColorMatrix type="matrix" values="0 0 0 0 0  0 0 0 0 0.474509803921569  0 0 0 0 0.996078431372549  0 0 0 0.8 0  " in="shadowComposite" />
    </filter>
    <g id="widget2">
      <path d="M 351.5 401  A 2.5 2.5 0 0 1 354 398.5 L 648 398.5  A 2.5 2.5 0 0 1 650.5 401 L 650.5 445  A 2.5 2.5 0 0 1 648 447.5 L 354 447.5  A 2.5 2.5 0 0 1 351.5 445 L 351.5 401  Z " fill-rule="nonzero" fill="#ffffff" stroke="none" />
      <path d="M 351.5 401  A 2.5 2.5 0 0 1 354 398.5 L 648 398.5  A 2.5 2.5 0 0 1 650.5 401 L 650.5 445  A 2.5 2.5 0 0 1 648 447.5 L 354 447.5  A 2.5 2.5 0 0 1 351.5 445 L 351.5 401  Z " stroke-width="1" stroke="#0079fe" fill="none" />
    </g>
  </defs>
  <g transform="matrix(1 0 0 1 -348 -395 )">
    <use xlink:href="#widget2" filter="url(#filter1)" />
    <use xlink:href="#widget2" />
  </g>
</svg>