<?xml version="1.0" encoding="utf-8"?>
<svg version="1.1" xmlns:xlink="http://www.w3.org/1999/xlink" width="206px" height="41px" xmlns="http://www.w3.org/2000/svg">
  <defs>
    <filter x="207px" y="15px" width="206px" height="41px" filterUnits="userSpaceOnUse" id="filter1">
      <feOffset dx="0" dy="0" in="SourceAlpha" result="shadowOffsetInner" />
      <feGaussianBlur stdDeviation="1.5" in="shadowOffsetInner" result="shadowGaussian" />
      <feComposite in2="shadowGaussian" operator="atop" in="SourceAlpha" result="shadowComposite" />
      <feColorMatrix type="matrix" values="0 0 0 0 0  0 0 0 0 0.474509803921569  0 0 0 0 0.996078431372549  0 0 0 0.8 0  " in="shadowComposite" />
    </filter>
    <g id="widget2">
      <path d="M 210.5 35.5  A 17 17 0 0 1 227.5 18.5 L 392.5 18.5  A 17 17 0 0 1 409.5 35.5 A 17 17 0 0 1 392.5 52.5 L 227.5 52.5  A 17 17 0 0 1 210.5 35.5 Z " fill-rule="nonzero" fill="#ffffff" stroke="none" />
      <path d="M 210.5 35.5  A 17 17 0 0 1 227.5 18.5 L 392.5 18.5  A 17 17 0 0 1 409.5 35.5 A 17 17 0 0 1 392.5 52.5 L 227.5 52.5  A 17 17 0 0 1 210.5 35.5 Z " stroke-width="1" stroke="#0079fe" fill="none" />
    </g>
  </defs>
  <g transform="matrix(1 0 0 1 -207 -15 )">
    <use xlink:href="#widget2" filter="url(#filter1)" />
    <use xlink:href="#widget2" />
  </g>
</svg>